<svg width="48" height="46" viewBox="0 0 48 46" fill="none" xmlns="http://www.w3.org/2000/svg">
<g clip-path="url(#clip0_154_1590)">
<path d="M31.2778 1.56772C30.7354 0.957489 29.9301 0.627088 28.4813 0.401201C26.2287 0.104701 23.9527 0.0279203 21.6852 0.171943C24.7177 -0.097773 26.6753 -0.0809158 26.6146 0.475373C26.527 1.2036 24.7851 1.67561 24.2561 1.82395C23.9191 1.92172 23.8753 1.92172 24.0775 1.95207C24.4515 2.00601 25.149 2.30607 25.0883 2.73087C25.0411 3.09161 24.4582 3.8131 23.124 4.34916C20.9053 5.16846 18.5397 5.51302 16.1797 5.3606C13.902 5.21562 12.2038 4.30533 12.625 3.40179C13.1641 2.25887 15.2767 1.34521 17.8138 0.849603C15.5934 1.27103 13.6426 2.07007 12.4667 3.11521C11.4558 4.0019 11.5434 5.20214 12.5105 5.81237C15.3171 7.59586 20.3577 7.05643 23.5081 6.59117C24.9539 6.3933 26.3769 6.05454 27.7568 5.57974C28.6981 5.26081 29.5879 4.80653 30.3984 4.23116C31.3789 3.49956 31.8304 2.18807 31.2778 1.56772Z" fill="url(#paint0_linear_154_1590)"/>
<path d="M38.2592 4.53797C36.2746 3.59396 33.761 3.40179 30.5265 3.35122C26.7662 3.29391 22.632 3.52316 18.3765 3.68836C21.0147 3.2231 23.3059 2.77133 25.2972 2.33979C27.0931 1.96218 28.4914 1.63178 29.6504 1.40927C30.3303 1.23043 31.0348 1.16437 31.7361 1.21372C32.1508 1.29865 32.5329 1.49976 32.8378 1.79361C33.2013 2.10793 33.4849 2.50414 33.6653 2.94962C33.8457 3.3951 33.9178 3.8771 33.8756 4.35591C33.724 5.5258 32.6458 6.89124 30.9847 7.94313C28.6764 9.38346 26.17 10.4784 23.5451 11.1932C19.6535 12.2856 14.997 12.9025 10.782 12.5789C8.89513 12.4339 7.25087 12.1069 6.06486 11.5034C5.09785 11.0111 4.50147 10.2189 4.6194 9.41308C4.88558 7.60261 7.58781 5.79215 10.6236 4.01877C7.92812 5.57975 5.58641 7.2149 4.52843 9.03211C3.63218 10.5762 4.42735 12.3597 6.18952 13.27C8.4908 14.4568 11.7456 14.8883 15.1217 14.9827C18.3904 15.0417 21.6585 14.832 24.8929 14.3556C27.6594 13.9957 30.3867 13.3806 33.04 12.5182C35.2335 11.7832 37.1001 10.9167 38.4782 9.8716C39.6136 9.01188 40.392 7.94987 40.3785 7.0025C40.365 6.05512 39.4755 5.11786 38.2592 4.53797Z" fill="url(#paint1_linear_154_1590)"/>
<path d="M25.9441 43.8288C24.9333 43.8928 24.027 44.1659 23.6327 44.5031C23.4373 44.675 23.6327 44.8605 23.2082 44.8133C23.0683 44.7482 22.9436 44.6547 22.8421 44.5385C22.7405 44.4224 22.6644 44.2863 22.6186 44.139C22.531 43.7479 22.7567 43.1579 23.2318 42.605C24.5795 41.0507 27.2076 39.7123 30.3074 39.6246C33.1478 39.5471 35.3885 40.1674 35.8298 41.3811C36.1668 42.3319 34.7348 43.6265 32.9827 44.3783C31.0566 45.1409 29.0354 45.6366 26.9751 45.8517C25.0074 46.0641 23.407 46.0641 22.7095 45.6527C22.4636 45.5078 22.8645 45.1875 22.7095 45.1032C21.7353 45.0149 20.773 44.8239 19.8388 44.5334C23.2924 45.5786 23.7203 44.9919 23.6395 45.0459C23.5586 45.0998 23.5653 45.319 23.8113 45.4134C24.3639 45.5771 24.9414 45.6399 25.5162 45.5988C27.0291 45.5516 28.5722 45.2617 28.9058 44.6447C29.1518 44.1996 27.7973 43.6973 25.9441 43.8288Z" fill="url(#paint2_linear_154_1590)"/>
<path d="M41.8779 10.9336C40.1972 10.4777 38.4671 10.2297 36.7261 10.1953C34.6607 10.1076 32.4605 10.1784 30.1221 10.3099C25.1557 10.5965 20.041 11.1629 14.896 11.3989C21.2506 9.88171 26.0149 8.06787 30.2165 6.59792C31.8182 5.98816 33.4713 5.52328 35.156 5.20889C36.4445 4.9561 37.7771 5.05034 39.0173 5.48197C40.8671 6.15626 42.4574 7.96673 42.1171 9.80754C41.7397 11.8304 39.553 13.9612 36.6722 15.5761C33.1193 17.5394 29.3339 19.0481 25.405 20.0668C20.1084 21.4559 14.0873 22.2515 8.67949 21.9616C6.30408 21.8301 4.21508 21.4997 2.61463 20.8457C1.30058 20.313 0.336936 19.4937 0.171837 18.5126C-0.1651 16.5976 2.23389 14.0926 4.93949 11.4629C2.53713 13.796 0.491927 16.0245 0.060648 18.1316C-0.333568 20.0601 1.27025 21.8975 3.68609 22.8517C6.7859 24.0856 10.8291 24.4969 15.0173 24.5374C19.1275 24.5268 23.231 24.2022 27.2919 23.5664C30.8165 23.0717 34.2881 22.2535 37.6628 21.1221C40.4661 20.1511 42.828 19.015 44.4655 17.6293C45.8133 16.4999 46.5343 15.0063 46.1502 13.8904C45.6852 12.5755 44.014 11.5674 41.8779 10.9336Z" fill="url(#paint3_linear_154_1590)"/>
<path d="M31.9652 38.1782C29.1248 38.0872 26.2002 38.6604 23.5788 39.2807C21.2405 39.8336 19.2627 40.4203 16.9782 40.5281C18.0301 39.9573 19.0203 39.2794 19.9332 38.5053C21.1023 37.5815 22.3962 36.5566 23.9191 35.5553C27.3491 33.2998 31.4598 31.3005 36.187 31.4792C40.082 31.6275 43.2458 32.8278 43.7377 34.8203C44.1522 36.506 42.0531 38.6907 39.3576 40.1067C36.2064 41.674 32.8735 42.8449 29.4348 43.5928C27.3946 44.0587 25.3291 44.4054 23.2486 44.6312C21.5397 44.8255 19.8197 44.9043 18.1002 44.8672C16.9719 44.8577 15.8482 44.7197 14.7511 44.4559C14.093 44.3006 13.4752 44.0076 12.9384 43.5962C12.2375 43.0331 11.5603 41.9914 10.6506 40.1404C11.2234 41.4091 12.0582 42.542 13.1001 43.4647C14.1121 44.2613 15.2996 44.8045 16.5638 45.0493C18.5051 45.4373 20.4855 45.5935 22.4636 45.5145C24.7711 45.4519 27.0713 45.2266 29.3472 44.8402C33.6162 44.1322 37.4337 43.0635 38.4445 41.1856C38.805 40.5113 38.3063 39.6482 37.3292 39.1627C36.0522 38.5592 34.1789 38.249 31.9652 38.1782Z" fill="url(#paint4_linear_154_1590)"/>
<path d="M41.5712 19.814C37.528 19.0756 32.9221 19.4768 27.9657 20.0466C22.8308 20.6366 17.8206 21.439 12.8036 21.702C18.8685 19.8915 23.7608 17.4337 28.6935 15.2659C30.8932 14.2417 33.1771 13.4092 35.5199 12.7778C37.5718 12.2721 39.6035 12.0462 41.6824 12.4878C43.3873 12.8519 44.88 13.4993 45.9043 14.4433C46.3325 14.8248 46.669 15.2984 46.8884 15.8286C47.1078 16.3587 47.2045 16.9317 47.1711 17.5045C46.9454 19.905 44.2263 22.4808 40.7693 24.3688C36.6538 26.5732 32.2868 28.2713 27.7636 29.426C21.9481 30.933 15.526 31.8163 9.80822 31.6545C7.32163 31.5837 5.12817 31.3174 3.36262 30.7577C1.91043 30.2891 0.781689 29.6047 0.289762 28.6573C-0.518887 27.0828 0.842338 24.416 2.57082 21.5064C1.03776 24.0991 -0.117932 26.4861 0.158356 28.3505C0.448122 30.2958 2.49333 31.7658 5.14165 32.5918C8.49417 33.6302 12.6385 33.9403 16.9344 33.8628C21.1623 33.7689 25.3781 33.3723 29.5493 32.676C33.1725 32.1266 36.7369 31.2417 40.1965 30.0328C43.0302 29.0012 45.3854 27.8077 46.851 26.3478C48.027 25.1746 48.3504 23.5529 47.5822 22.5314C46.5646 21.1794 44.3476 20.3264 41.5712 19.814Z" fill="url(#paint5_linear_154_1590)"/>
<path d="M37.7976 29.5642C33.8756 29.1697 29.5898 29.7732 25.3309 30.488C21.1562 31.1859 17.3017 32.0018 13.3461 32.2209C15.4872 31.4165 17.5642 30.4507 19.5592 29.3316C21.7223 28.1549 23.8585 26.8906 26.1193 25.7005C30.7017 23.2798 35.3278 21.1659 40.4964 21.7458C42.6023 21.9852 44.4419 22.5145 45.8065 23.3978C46.9319 24.1294 47.717 25.1982 47.7877 26.3276C47.9225 28.5797 45.2775 31.1859 41.9419 33.0031C37.9912 35.0725 33.8054 36.6573 29.4752 37.7231C26.7087 38.4229 23.9025 38.9554 21.072 39.3178C18.5166 39.6574 15.9408 39.8208 13.3629 39.8067C11.4967 39.8228 9.63506 39.618 7.81693 39.1964C6.56015 38.8593 5.53924 38.3839 4.90916 37.6658C3.96911 36.5869 4.10052 34.4697 4.52506 31.8568C4.14769 34.1763 4.13421 36.1453 4.86199 37.4534C5.71444 38.9975 7.59118 39.955 9.88909 40.5281C12.7733 41.2463 16.2269 41.4317 19.8321 41.3272C23.434 41.2014 27.0231 40.8274 30.5736 40.2079C33.653 39.7194 36.6782 38.9347 39.6069 37.8647C41.9655 36.9679 43.859 35.9362 44.8463 34.6753C45.0301 34.4405 45.1646 34.1709 45.2417 33.8828C45.3189 33.5947 45.337 33.294 45.2952 32.9986C45.2533 32.7033 45.1523 32.4195 44.9982 32.1642C44.844 31.9089 44.6399 31.6874 44.3981 31.5129C42.9763 30.4442 40.6548 29.8541 37.7976 29.5642Z" fill="url(#paint6_linear_154_1590)"/>
</g>
<defs>
<linearGradient id="paint0_linear_154_1590" x1="13.2484" y1="0.00202045" x2="31.9653" y2="5.52918" gradientUnits="userSpaceOnUse">
<stop offset="0.0364583" stop-color="#7A43F0"/>
<stop offset="0.937516" stop-color="#C38CFF"/>
</linearGradient>
<linearGradient id="paint1_linear_154_1590" x1="6.90977" y1="1.19787" x2="41.5458" y2="10.7684" gradientUnits="userSpaceOnUse">
<stop offset="0.0364583" stop-color="#BE9FFF"/>
<stop offset="0.937516" stop-color="#E6CFFF"/>
</linearGradient>
<linearGradient id="paint2_linear_154_1590" x1="21.0577" y1="39.6181" x2="36.4853" y2="43.7037" gradientUnits="userSpaceOnUse">
<stop offset="0.0364583" stop-color="#4917B2"/>
<stop offset="0.937516" stop-color="#B371FB"/>
</linearGradient>
<linearGradient id="paint3_linear_154_1590" x1="3.5156" y1="5.07031" x2="48.3195" y2="16.2723" gradientUnits="userSpaceOnUse">
<stop offset="0.0364583" stop-color="#9B6CFF"/>
<stop offset="0.937516" stop-color="#DBBBFF"/>
</linearGradient>
<linearGradient id="paint4_linear_154_1590" x1="13.1687" y1="31.4681" x2="45.3024" y2="39.4347" gradientUnits="userSpaceOnUse">
<stop offset="0.0364583" stop-color="#BE9FFF"/>
<stop offset="0.937516" stop-color="#E6CFFF"/>
</linearGradient>
<linearGradient id="paint5_linear_154_1590" x1="3.69385" y1="12.2521" x2="50.4957" y2="23.1738" gradientUnits="userSpaceOnUse">
<stop offset="0.0364583" stop-color="#692CCD"/>
<stop offset="0.937516" stop-color="#B87FF6"/>
</linearGradient>
<linearGradient id="paint6_linear_154_1590" x1="7.51327" y1="21.649" x2="50.0734" y2="31.5568" gradientUnits="userSpaceOnUse">
<stop offset="0.0364583" stop-color="#7A43F0"/>
<stop offset="0.937516" stop-color="#C38CFF"/>
</linearGradient>
<clipPath id="clip0_154_1590">
<rect width="48" height="46" fill="white"/>
</clipPath>
</defs>
</svg>
